<svg width="0" height="0" class="hidden">
  <symbol xmlns="http://www.w3.org/2000/svg" fill="none" stroke="currentColor" stroke-width="2" stroke-linecap="round" stroke-linejoin="round" viewBox="0 0 28 28" id="search-icon">
    <path stroke="none" d="M0 0h24v24H0z" fill="none"></path>
    <path d="M10 10m-7 0a7 7 0 1 0 14 0a7 7 0 1 0 -14 0"></path>
    <path d="M21 21l-6 -6"></path>
  </symbol>
  <symbol xmlns="http://www.w3.org/2000/svg" fill="none" stroke="currentColor" stroke-width="2" stroke-linecap="round" stroke-linejoin="round" viewBox="0 0 28 28" id="arrow-left-icon">
    <path stroke="none" d="M0 0h24v24H0z" fill="none"></path>
    <path d="M5 12l14 0"></path>
    <path d="M5 12l4 4"></path>
    <path d="M5 12l4 -4"></path>
  </symbol>
  <symbol xmlns="http://www.w3.org/2000/svg" fill="none" stroke="currentColor" stroke-width="2" stroke-linecap="round" stroke-linejoin="round" viewBox="0 0 28 28" id="delete-icon">
    <path stroke="none" d="M0 0h24v24H0z" fill="none"></path>
    <path d="M4 7l16 0"></path>
    <path d="M10 11l0 6"></path>
    <path d="M14 11l0 6"></path>
    <path d="M5 7l1 12a2 2 0 0 0 2 2h8a2 2 0 0 0 2 -2l1 -12"></path>
    <path d="M9 7v-3a1 1 0 0 1 1 -1h4a1 1 0 0 1 1 1v3"></path>
  </symbol>
  <symbol xmlns="http://www.w3.org/2000/svg" fill="none" stroke="currentColor" stroke-width="2" stroke-linecap="round" stroke-linejoin="round" viewBox="0 0 28 28" id="edit-icon">
    <path stroke="none" d="M0 0h24v24H0z" fill="none"></path>
    <path d="M7 7h-1a2 2 0 0 0 -2 2v9a2 2 0 0 0 2 2h9a2 2 0 0 0 2 -2v-1"></path>
    <path d="M20.385 6.585a2.1 2.1 0 0 0 -2.97 -2.97l-8.415 8.385v3h3l8.385 -8.415z"></path>
    <path d="M16 5l3 3"></path>
  </symbol>
  <symbol xmlns="http://www.w3.org/2000/svg" fill="none" stroke="currentColor" stroke-width="2" stroke-linecap="round" stroke-linejoin="round" viewBox="0 0 28 28" id="view-icon">
    <path stroke="none" d="M0 0h24v24H0z" fill="none"></path>
    <path d="M10 12a2 2 0 1 0 4 0a2 2 0 0 0 -4 0"></path>
    <path d="M21 12c-2.4 4 -5.4 6 -9 6c-3.6 0 -6.6 -2 -9 -6c2.4 -4 5.4 -6 9 -6c3.6 0 6.6 2 9 6"></path>
  </symbol>
  <symbol xmlns="http://www.w3.org/2000/svg" fill="none" stroke="currentColor" stroke-width="2" stroke-linecap="round" stroke-linejoin="round" viewBox="0 0 28 28" id="add-icon">
    <path stroke="none" d="M0 0h24v24H0z" fill="none"></path>
    <path d="M12 5l0 14"></path>
    <path d="M5 12l14 0"></path>
  </symbol>
    <symbol xmlns="http://www.w3.org/2000/svg" fill="none" stroke="currentColor" stroke-width="2" stroke-linecap="round" stroke-linejoin="round" viewBox="0 0 28 28" id="chevron-down">
	    <path stroke="none" d="M0 0h24v24H0z" fill="none"></path>
	    <path d="M6 9l6 6l6 -6"></path>
    </symbol>
</svg>